<?xml version="1.0" standalone="no"?>
<!DOCTYPE svg PUBLIC "-//W3C//DTD SVG 1.1//EN" "http://www.w3.org/Graphics/SVG/1.1/DTD/svg11.dtd" >
<!--
2013-9-30: Created.
-->
<svg>
<metadata>
Created by iconfont
</metadata>
<defs>

<font id="iconfont" horiz-adv-x="1024" >
  <font-face
    font-family="iconfont"
    font-weight="500"
    font-stretch="normal"
    units-per-em="1024"
    ascent="896"
    descent="-128"
  />
    <missing-glyph />
    
    <glyph glyph-name="closecircled" unicode="&#58902;" d="M512 891.44888889C230.51377778 891.44888889 2.27555555 663.21066667 2.27555555 381.72444444999996c0-281.48622222 228.23822222-509.72444445 509.72444445-509.72444445 281.48622222 0 509.72444445 228.23822222 509.72444445 509.72444445C1021.72444445 663.21066667 793.48622222 891.44888889 512 891.44888889zM758.44266667 209.91999999999996c3.41333333-3.41333333 5.23377778-7.96444445 5.23377778-12.74311111 0-4.77866667-1.82044445-9.55733333-5.23377778-12.74311111l-49.152-49.37955556c-3.64088889-3.64088889-8.192-5.23377778-12.74311112-5.23377777-4.55111111 0-9.32977778 1.82044445-12.7431111 5.23377777L512 307.08622221999997l-171.57688889-172.25955555c-3.41333333-3.64088889-8.192-5.23377778-12.74311111-5.23377778-4.55111111 0-9.32977778 1.82044445-12.74311111 5.23377778l-49.152 49.37955555c-3.41333333 3.41333333-5.23377778 7.96444445-5.23377778 12.74311111 0 4.77866667 1.82044445 9.55733333 5.23377778 12.74311112l172.25955556 172.94222222-172.71466667 170.66666666c-7.05422222 7.05422222-7.05422222 18.65955555 0 25.71377778l49.152 49.37955556c3.41333333 3.41333333 7.96444445 5.23377778 12.74311111 5.23377778 4.77866667 0 9.32977778-1.82044445 12.74311111-5.23377778l172.25955555-169.984 172.25955556 169.984c3.41333333 3.41333333 7.96444445 5.23377778 12.74311111 5.23377778 4.77866667 0 9.32977778-1.82044445 12.74311111-5.23377778l49.152-49.37955556c7.05422222-7.05422222 7.05422222-18.65955555 0-25.71377778l-172.71466666-170.66666666L758.44266667 209.91999999999996z"  horiz-adv-x="1024" />

    
    <glyph glyph-name="star" unicode="&#58893;" d="M687.665 405.924h-122.676l86.74 86.732c8.57 8.608 8.57 22.426 0 31.073-8.57 8.57-22.464 8.57-31.053 0l-86.732-86.74v122.675c0 12.12-9.766 21.963-21.945 21.963-12.1 0-21.963-9.843-21.963-21.963v-122.644l-86.713 86.746c-8.589 8.57-22.485 8.57-31.054 0-8.57-8.608-8.57-22.504 0-31.111l86.712-86.732h-122.667c-12.12 0-21.944-9.804-21.944-21.923 0-12.158 9.823-21.963 21.944-21.963h122.68l-86.725-86.733c-8.57-8.57-8.57-22.464 0-31.033 4.284-4.324 9.863-6.445 15.517-6.445 5.578 0 11.253 2.123 15.536 6.445l86.713 86.707v-122.68c0-12.12 9.823-21.923 21.963-21.923 12.101 0 21.944 9.804 21.944 21.923v122.649l86.732-86.752c4.284-4.246 9.959-6.407 15.535-6.407 5.655 0 11.214 2.161 15.517 6.407 8.57 8.608 8.57 22.504 0 31.073l-86.737 86.77h122.675c12.139 0 21.962 9.804 21.962 21.963 0 12.12-9.822 21.924-21.962 21.924z"  horiz-adv-x="1024" />

    
    <glyph glyph-name="tip-sign" unicode="&#58898;" d="M516.212 132.48299999999995c-25.419 0-46.022 20.597-46.022 46.014 0 25.412 20.603 46.009 46.022 46.009 25.405 0 46.009-20.595 46.009-46.009-0.001-25.417-20.604-46.014-46.009-46.014v0zM516.212 285.21500000000003c-21.261 0-38.551 17.29-38.551 38.551v288.268c0 21.249 17.291 38.537 38.551 38.537 21.246 0 38.537-17.287 38.537-38.537v-288.267c-0.001-21.263-17.291-38.553-38.537-38.553zM516.205 833.187c-247.569 0-448.254-200.688-448.254-448.257 0-247.581 200.685-448.271 448.254-448.271 247.562 0 448.254 200.69 448.254 448.271 0 247.569-200.692 448.257-448.254 448.257zM516.205-3.576999999999998c-214.213 0-388.487 174.277-388.487 388.506 0 214.215 174.275 388.491 388.487 388.491 214.211 0 388.487-174.275 388.487-388.491 0-214.228-174.275-388.506-388.487-388.506z"  horiz-adv-x="1024" />

    
    <glyph glyph-name="down" unicode="&#59079;" d="M1000 651.9c-31.8 31.3-83.5 31.3-115.4 0L512 286.5 139.4 651.9c-31.8 31.3-83.5 31.3-115.4 0-32-31.5-32-82.4 0-113.9l430.2-421.9c32-31.3 83.5-31.3 115.6 0L1000 538c32 31.5 32 82.4 0 113.9z"  horiz-adv-x="1024" />

    
    <glyph glyph-name="asterisk" unicode="&#58908;" d="M716.07806003 301.65271261L572.86538634 384l143.21267369 82.34728739c14.32126745 7.16063367 21.48190105 28.64253473 10.74095053 42.96380212-7.16063367 14.32126745-28.64253473 21.48190105-42.96380208 10.74095042l-143.21267372-82.34728727L540.64253473 602.39932742C544.22285166 620.30091164 529.90158418 634.6221789900001 512 634.6221789900001S479.77714834 620.30091164 479.77714834 602.39932742l0-164.69457478-143.21267363 82.34728729C325.82352411 530.79299062 304.34162313 523.6323569 297.18098944 509.31108951c-7.16063367-14.32126745-3.58031685-35.80316842 10.74095043-42.96380212l143.21267383-82.34728739-143.21267383-82.34728739c-14.32126745-7.16063367-21.48190105-28.64253473-10.74095048-42.96380212 7.16063367-10.74095052 17.90158418-14.32126745 28.64253478-14.32126734 3.58031685 0 10.74095052 0 14.32126735 3.58031692l143.21267372 82.34728727 0-164.69457476C479.77714834 147.69908836000002 494.09841582 133.37782101000005 512 133.37782101000005s32.22285166 14.32126745 32.22285166 32.22285157L544.22285166 330.29524733999995l143.21267371-82.34728739c3.58031685-3.58031685 10.74095052-3.58031685 14.32126731-3.58031685 10.74095052 0 21.48190105 7.16063367 28.64253474 14.32126739C733.97964421 273.01017786 730.39932742 294.49207889 716.07806003 301.65271261z"  horiz-adv-x="1024" />

    
    <glyph glyph-name="chevron-right" unicode="&#59021;" d="M302.545455-104.72727299999997a50.106182 50.106182 0 0 0-35.421091 85.550546L670.30109101 384l-403.17672701 403.176727a50.106182 50.106182 0 1 0 70.865454 70.865455L776.587636 419.421091a50.106182 50.106182 0 0 0 0-70.842182L337.989818-90.06545500000004C328.215273-99.84000000000003 315.345455-104.72727299999997 302.545455-104.72727299999997"  horiz-adv-x="1024" />

    
    <glyph glyph-name="input-calendar" unicode="&#58939;" d="M873.411765-128H150.588235a120.470588 120.470588 0 0 0-120.470588 120.470588V655.058824a120.470588 120.470588 0 0 0 120.470588 120.470588h60.235294V865.882353a30.117647 30.117647 0 0 0 60.235295 0V775.529412h481.882352V865.882353a30.117647 30.117647 0 0 0 60.235295 0V775.529412h60.235294a120.470588 120.470588 0 0 0 120.470588-120.470588v-662.588236a120.470588 120.470588 0 0 0-120.470588-120.470588z m60.235294 783.058824a60.235294 60.235294 0 0 1-60.235294 60.235294H150.588235a60.235294 60.235294 0 0 1-60.235294-60.235294v-662.588236a60.235294 60.235294 0 0 1 60.235294-60.235294h722.82353a60.235294 60.235294 0 0 1 60.235294 60.235294V655.058824z m-240.941177-421.647059h120.470589v-120.470589h-120.470589v120.470589z m0 301.17647h120.470589v-120.470588h-120.470589V534.5882349999999z m-240.941176-301.17647h120.470588v-120.470589H451.764706v120.470589z m0 301.17647h120.470588v-120.470588H451.764706V534.5882349999999z m-240.941177-301.17647h120.470589v-120.470589H210.823529v120.470589z m0 301.17647h120.470589v-120.470588H210.823529V534.5882349999999z"  horiz-adv-x="1024" />

    
    <glyph glyph-name="input-triangle" unicode="&#58941;" d="M781.91727033 162.74323708999998L450.03212595 605.25676291h663.77028875L781.91727033 162.74323708999998"  horiz-adv-x="1536" />

    
    <glyph glyph-name="radio-selected" unicode="&#58942;" d="M512-128a512 512 0 1 0 512 512 512 512 0 0 0-512-512zM512 576a192 192 0 1 1 192-192 192 192 0 0 1-192 192z"  horiz-adv-x="1024" />

    
    <glyph glyph-name="radio" unicode="&#58943;" d="M512-128a512 512 0 1 0 512 512 512 512 0 0 0-512-512zM512 832a448 448 0 1 1 448-448 448 448 0 0 1-448 448z"  horiz-adv-x="1024" />

    
    <glyph glyph-name="checkbox-selected" unicode="&#58944;" d="M853.312-128H170.688A170.688 170.688 0 0 0 0 42.68799999999999V725.312A170.688 170.688 0 0 0 170.688 896h682.624A170.688 170.688 0 0 0 1024 725.312v-682.624A170.688 170.688 0 0 0 853.312-128z m-39.68 685.632a63.488 63.488 0 0 1-89.6 0L452.416 286.01599999999996 373.568 364.86400000000003a69.44 69.44 0 0 1-98.24-98.176l117.504-117.44a67.456 67.456 0 0 1 30.592-16.704 63.424 63.424 0 0 1 69.056 13.824l321.408 321.408a63.488 63.488 0 0 1-0.256 89.856z"  horiz-adv-x="1024" />

    
    <glyph glyph-name="checkbox" unicode="&#58945;" d="M896-128H128a128 128 0 0 0-128 128V768a128 128 0 0 0 128 128h768a128 128 0 0 0 128-128v-768a128 128 0 0 0-128-128z m64 896a64 64 0 0 1-64 64H128a64 64 0 0 1-64-64v-768a64 64 0 0 1 64-64h768a64 64 0 0 1 64 64V768z"  horiz-adv-x="1024" />

    
    <glyph glyph-name="table-info" unicode="&#58965;" d="M512-128a512 512 0 1 0 512 512 512 512 0 0 0-512-512zM512 822.857143a438.857143 438.857143 0 1 1 438.857143-438.857143 438.857143 438.857143 0 0 1-438.857143 438.857143z m0-731.428572a73.142857 73.142857 0 1 0 73.142857 73.142858 73.142857 73.142857 0 0 0-73.142857-73.142858z m0 219.428572a73.142857 73.142857 0 0 0-73.142857 73.142857V603.4285709999999a73.142857 73.142857 0 0 0 146.285714 0v-219.428571a73.142857 73.142857 0 0 0-73.142857-73.142857z"  horiz-adv-x="1024" />

    
    <glyph glyph-name="arrow-down-sm" unicode="&#58880;" d="M699.97605815 499.57219596L531.91310867 315.79079727a26.44801935 26.44801935 0 0 0-19.86701352-8.98855601c-7.60570122 0-14.84264118 3.27275629-19.86701348 8.98855601L324.11613217 499.57219596c-8.20493829 8.66588987-10.74017202 21.29596343-6.49941743 32.45099188s14.47387991 18.94511033 26.36643092 20.00529901h335.98761352c11.93864618-1.01409349 22.2178666-8.7580802 26.45862124-19.95920384 4.2868498-11.20112363 1.75161605-23.78510201-6.45332227-32.49708705z"  horiz-adv-x="1024" />

    
    <glyph glyph-name="search" unicode="&#59022;" d="M981.611428-108.24673800000005a67.467936 67.467936 0 0 0-95.399662 0l-242.884571 242.884571a412.836302 412.836302 0 1 0 100.662161 90.204631l237.891943-237.891944a67.467936 67.467936 0 0 0-0.269871-95.197258zM429.588773 747.38163a269.871745 269.871745 0 1 1 269.871745-269.871745 269.871745 269.871745 0 0 1-269.871745 269.871745z"  horiz-adv-x="1024" />

    
    <glyph glyph-name="add-sm" unicode="&#59023;" d="M557.18 339v-360a45 45 0 1 0-90 0v360H108.17a45 45 0 0 0 0 90h358.83v360a45 45 0 1 0 90 0v-360h358.83a45 45 0 0 0 0-90H557z"  horiz-adv-x="1024" />

    
    <glyph glyph-name="close" unicode="&#59024;" d="M574.82370231 384.65907901l317.94056462-317.94056463a44.95765886 44.95765886 0 0 0-63.57012984-63.57012983L511.25357171 321.08894917 193.40292253 3.148384549999946a44.95765886 44.95765886 0 0 0-63.66004529 63.57012984l317.94056463 317.94056462L129.74287724 702.59964441A44.95765886 44.95765886 0 0 0 193.40292253 766.16977423l317.85064918-317.94056539L829.19413709 766.16977423a44.95765886 44.95765886 0 0 0 63.57012984-63.57012982z"  horiz-adv-x="1024" />

    
    <glyph glyph-name="save" unicode="&#59027;" d="M877.714286-128H146.285714a146.285714 146.285714 0 0 0-146.285714 146.285714V749.714286a146.285714 146.285714 0 0 0 146.285714 146.285714h731.428572a146.285714 146.285714 0 0 0 146.285714-146.285714v-731.428572a146.285714 146.285714 0 0 0-146.285714-146.285714zM438.857143 749.714286v-146.285715h146.285714V749.714286H438.857143z m438.857143 0h-146.285715v-292.571429H292.571429V749.714286H146.285714v-731.428572h731.428572V749.714286zM365.714286 237.71428600000002h73.142857a73.142857 73.142857 0 0 0 0-146.285715H365.714286a73.142857 73.142857 0 0 0 0 146.285715z"  horiz-adv-x="1024" />

    
    <glyph glyph-name="add-sign" unicode="&#59030;" d="M512 384m-512 0a512 512 0 1 1 1024 0 512 512 0 1 1-1024 0ZM704 320H576v-128a64 64 0 0 0-128 0V320H320a64 64 0 0 0 0 128h128V576a64 64 0 0 0 128 0v-128h128a64 64 0 0 0 0-128z"  horiz-adv-x="1024" />

    
    <glyph glyph-name="del-sign" unicode="&#59031;" d="M512 384m-512 0a512 512 0 1 1 1024 0 512 512 0 1 1-1024 0ZM256 448l512 0 0-128-512 0 0 128Z"  horiz-adv-x="1024" />

    
    <glyph glyph-name="off" unicode="&#59038;" d="M831.832222 790.370462h-0.787693a48.206769 48.206769 0 0 1-33.870769 14.099692 93.971692 93.971692 0 0 1-81.92-110.276923 39.384615 39.384615 0 0 1 11.027692-30.562462 355.249231 355.249231 0 1 0-428.504615 0 43.795692 43.795692 0 0 1 12.603077 31.035077 87.512615 87.512615 0 0 1-81.132308 110.276923 50.806154 50.806154 0 0 1-37.021538-14.651077 512 512 0 1 1 639.606154 0zM512.029145 331.145846A118.153846 118.153846 0 0 1 580.558375 423.384615V817.230769a97.988923 97.988923 0 0 1-68.52923 78.769231 104.369231 104.369231 0 0 1-74.043077-78.769231v-393.846154a123.825231 123.825231 0 0 1 74.043077-92.238769z"  horiz-adv-x="1024" />

    
    <glyph glyph-name="modal-question-icon-" unicode="&#58998;" d="M512 384m-499.2 0a499.2 499.2 0 1 1 998.4 0 499.2 499.2 0 1 1-998.4 0ZM486.4 153.6a38.4 38.4 0 1 0 38.4-38.4A38.4 38.4 0 0 0 486.4 153.6z m38.4 89.9328a25.6 25.6 0 0 0-25.6 25.6V312.32c0 41.7792 31.9744 73.728 60.2368 101.9136 20.7104 20.6848 42.1376 42.0352 42.1376 59.0848A77.1072 77.1072 0 0 1 524.8 550.4a75.3152 75.3152 0 0 1-76.8-75.4688 25.6 25.6 0 0 0-51.2 0 128 128 0 0 0 256-1.7408c0-38.2464-29.056-67.2256-57.1136-95.232C573.44 355.84 550.4 332.8 550.4 312.32v-43.1872a25.6 25.6 0 0 0-25.6-25.6256z"  horiz-adv-x="1024" />

    
    <glyph glyph-name="modal-fail-icon" unicode="&#58999;" d="M512 384m-499.2 0a499.2 499.2 0 1 1 998.4 0 499.2 499.2 0 1 1-998.4 0ZM547.3536 384l123.7504-123.7504a24.9856 24.9856 0 0 0-35.3536-35.328L512 348.6464l-123.7504-123.7248a24.9856 24.9856 0 0 0-35.3536 35.328L476.6464 384l-123.7504 123.7504a25.0112 25.0112 0 0 0 35.3536 35.3536L512 419.3536l123.7504 123.7504a25.0112 25.0112 0 0 0 35.3536-35.3536z"  horiz-adv-x="1024" />

    
    <glyph glyph-name="modal-question-icon" unicode="&#59000;" d="M512 384m-499.2 0a499.2 499.2 0 1 1 998.4 0 499.2 499.2 0 1 1-998.4 0ZM696.704 456.5504l-228.0704-228.0704a23.04 23.04 0 0 0-2.3552-3.5584 24.4224 24.4224 0 0 0-17.7408-7.1168 24.8064 24.8064 0 0 0-18.8416 7.0912 24.5248 24.5248 0 0 0-3.6864 5.5808l-125.056 125.056a24.5504 24.5504 0 0 0 34.7136 34.7136l112-112 213.6832 213.632a24.9856 24.9856 0 0 0 35.3536-35.328z"  horiz-adv-x="1024" />

    
    <glyph glyph-name="bst" unicode="&#58895;" d="M682.409582 385.312985A170.633754 170.633754 0 1 0 511.584105 555.691108a170.889385 170.889385 0 0 0 170.825477-170.378123z m340.756246 72.535323a23.901507 23.901507 0 0 1-18.852793 23.965415l-121.999939 18.661069a366.127632 366.127632 0 0 1-27.288619 65.185929c22.687259 31.250901 47.35566 60.520661 70.298551 91.132484a25.563109 25.563109 0 0 1 5.368253 15.337866 22.878983 22.878983 0 0 1-4.665268 14.63488 843.966051 843.966051 0 0 1-109.985277 113.116758 26.457818 26.457818 0 0 1-16.679929 6.390778 22.495536 22.495536 0 0 1-15.976943-6.007331l-94.647412-71.193259a398.784504 398.784504 0 0 1-60.009399 24.6684L610.065983 876.18859a23.454153 23.454153 0 0 1-24.029323 19.172332H438.090166a24.029323 24.029323 0 0 1-24.029323-18.0859 880.585205 880.585205 0 0 1-19.172332-123.789356 408.37067 408.37067 0 0 1-60.584569-25.563109l-92.027193 71.193259a29.653207 29.653207 0 0 1-17.319007 6.390777A498.48063 498.48063 0 0 1 96.311395 686.382504a25.563109 25.563109 0 0 1-6.00733-15.337865 24.476677 24.476677 0 0 1 6.390777-15.976944q37.386047-44.735441 71.321075-91.963285a362.229258 362.229258 0 0 1-26.010464-61.351462l-123.917172-18.66107a25.563109 25.563109 0 0 1-18.021992-23.965415v-147.690863a24.284954 24.284954 0 0 1 19.172332-23.965415l121.999939-18.021992a346.507946 346.507946 0 0 1 27.352527-65.825007c-22.687259-31.314809-47.35566-60.584569-70.298551-91.196392a25.563109 25.563109 0 0 1-5.304345-15.337865 25.563109 25.563109 0 0 1 4.665267-15.337866 830.80105 830.80105 0 0 1 109.985278-111.838603 23.709784 23.709784 0 0 1 16.616021-7.285486 25.563109 25.563109 0 0 1 16.679929 6.007331l94.008334 71.193259a378.717463 378.717463 0 0 1 59.945491-24.604493l18.66107-122.702924a23.901507 23.901507 0 0 1 24.029323-19.939225h147.946494a24.412769 24.412769 0 0 1 24.029323 18.661069 868.570544 868.570544 0 0 1 19.172332 123.789357 392.904989 392.904989 0 0 1 60.648477 25.24357l92.027193-71.832337a33.232042 33.232042 0 0 1 17.319006-6.00733 509.66449 509.66449 0 0 1 128.646348 119.124089 22.112089 22.112089 0 0 1 6.00733 15.337865 26.010464 26.010464 0 0 1-6.390777 16.616021c-24.604493 29.972746-48.633815 59.242506-71.257167 92.027193a370.21773 370.21773 0 0 1 25.946556 60.584569l123.342002 18.597162a25.115755 25.115755 0 0 1 18.149807 23.965415V456.697968z"  horiz-adv-x="1024" />

    
    <glyph glyph-name="help" unicode="&#58912;" d="M512 896a512 512 0 1 1 512-512 512 512 0 0 1-512 512z m51.2-870.4H460.8V128h102.4v-102.4z m105.984 396.8l-46.08-47.104A174.272 174.272 0 0 1 563.2 230.4H460.8V256a206.08 206.08 0 0 0 59.904 144.896l63.488 64.512A100.096 100.096 0 0 1 614.4 537.6a102.4 102.4 0 0 1-204.8 0H307.2a204.8 204.8 0 0 0 409.6 0 162.88 162.88 0 0 0-47.616-115.2z"  horiz-adv-x="1024" />

    
    <glyph glyph-name="arrow-left-icon" unicode="&#58919;" d="M726.089143 384l240.201143-240.201143a73.801143 73.801143 0 1 0-104.374857-104.374857l-292.571429 292.132571a74.386286 74.386286 0 0 0 0 104.813715l292.571429 292.205714a73.801143 73.801143 0 0 0 104.374857-104.374857z m-271.798857-344.576a73.801143 73.801143 0 0 0-104.374857 0l-292.571429 292.132571a74.386286 74.386286 0 0 0 0 104.813715l292.571429 292.205714a73.801143 73.801143 0 0 0 104.374857-104.374857L214.089143 384l240.201143-240.201143a73.801143 73.801143 0 0 0 0-104.374857z"  horiz-adv-x="1024" />

    
    <glyph glyph-name="arrow-rightt-icon" unicode="&#58920;" d="M966.217143 331.629714L674.377143 39.497143a73.874286 73.874286 0 0 0-104.594286 104.374857L809.691429 384 569.782857 624.201143a73.874286 73.874286 0 0 0 104.594286 104.374857l291.84-292.205714a73.508571 73.508571 0 0 0 0-104.740572z m-512 0L162.377143 39.497143a73.874286 73.874286 0 0 0-104.594286 104.374857L297.691429 384 57.782857 624.201143a73.874286 73.874286 0 0 0 104.594286 104.374857l291.84-292.205714a73.508571 73.508571 0 0 0 0-104.740572z"  horiz-adv-x="1024" />

    
    <glyph glyph-name="plaint" unicode="&#58923;" d="M512-64a448 448 0 1 0 448 448 448 448 0 0 0-448-448zM576 576a64 64 0 0 1-128 0v-192a64 64 0 0 1 128 0V576z m-64-320a64 64 0 1 1 64-64 64 64 0 0 1-64 64z"  horiz-adv-x="1024" />

    
    <glyph glyph-name="arrow-left1" unicode="&#58959;" d="M552.511943 381.039933l334.337428-334.337428a102.724258 102.724258 0 0 0-145.279997-145.279997l-407.231946 407.231946a103.436914 103.436914 0 0 0 0 145.789037l407.231946 406.722906a102.724258 102.724258 0 1 0 145.279997-145.279996z"  horiz-adv-x="1221" />

    
    <glyph glyph-name="arrow-right1" unicode="&#58960;" d="M892.0064 310.6816l-409.6-409.6a103.3216 103.3216 0 0 0-146.1248 146.1248L673.0752 384 336.7936 720.2816A103.3216 103.3216 0 0 0 482.9184 866.4064l409.6-409.088a104.0384 104.0384 0 0 0-0.512-146.6368z"  horiz-adv-x="1228" />

    


  </font>
</defs>
</svg>
